<svg xmlns="http://www.w3.org/2000/svg" viewBox="0 0 400 270" width="400" height="270">
  <defs>
    <style>text { font-family: -apple-system, BlinkMacSystemFont, "Segoe UI", Roboto, Helvetica, Arial, sans-serif; }</style>
  </defs>
  <rect width="400" height="270" rx="12" fill="#fff" stroke="#e0e0e0" stroke-width="1"/>
  <text x="200" y="30" text-anchor="middle" font-size="11" fill="#aaa" letter-spacing="1" text-transform="uppercase">Quiz</text>
  <line x1="160" y1="38" x2="240" y2="38" stroke="#eee" stroke-width="1"/>
  
        <text x="200" y="60" text-anchor="middle" font-size="14" fill="#333" font-weight="600">Find Your Perfect Product</text>
        <text x="200" y="80" text-anchor="middle" font-size="11" fill="#888">Question 2 of 4</text>
        <rect x="80" y="88" width="240" height="3" rx="1" fill="#eee"/>
        <rect x="80" y="88" width="120" height="3" rx="1" fill="#3498db"/>

        <text x="200" y="115" text-anchor="middle" font-size="13" fill="#444">What's your skin type?</text>

        <rect x="60" y="130" width="130" height="38" rx="6" fill="#fff" stroke="#3498db" stroke-width="1.5"/>
        <text x="125" y="154" text-anchor="middle" font-size="11" fill="#3498db">Oily</text>
        <rect x="210" y="130" width="130" height="38" rx="6" fill="#3498db"/>
        <text x="275" y="154" text-anchor="middle" font-size="11" fill="#fff" font-weight="600">Dry ✓</text>
        <rect x="60" y="178" width="130" height="38" rx="6" fill="#fff" stroke="#ddd"/>
        <text x="125" y="202" text-anchor="middle" font-size="11" fill="#666">Combination</text>
        <rect x="210" y="178" width="130" height="38" rx="6" fill="#fff" stroke="#ddd"/>
        <text x="275" y="202" text-anchor="middle" font-size="11" fill="#666">Sensitive</text>

        <rect x="145" y="228" width="110" height="28" rx="14" fill="#333"/>
        <text x="200" y="247" text-anchor="middle" font-size="11" fill="#fff">Next →</text>
        
</svg>