<svg xmlns="http://www.w3.org/2000/svg" viewBox="0 0 400 270" width="400" height="270">
  <defs>
    <style>text { font-family: -apple-system, BlinkMacSystemFont, "Segoe UI", Roboto, Helvetica, Arial, sans-serif; }</style>
  </defs>
  <rect width="400" height="270" rx="12" fill="#fff" stroke="#e0e0e0" stroke-width="1"/>
  <text x="200" y="30" text-anchor="middle" font-size="11" fill="#aaa" letter-spacing="1" text-transform="uppercase">Video Slider</text>
  <line x1="160" y1="38" x2="240" y2="38" stroke="#eee" stroke-width="1"/>
  
        <text x="200" y="60" text-anchor="middle" font-size="14" fill="#333" font-weight="600">Featured Videos</text>
        <rect x="20" y="75" width="115" height="80" rx="4" fill="#e8e8e8" stroke="#ccc"/>
        <polygon points="60,100 60,130 85,115" fill="#999"/>
        <rect x="143" y="75" width="115" height="80" rx="4" fill="#e8e8e8" stroke="#ccc"/>
        <polygon points="183,100 183,130 208,115" fill="#999"/>
        <rect x="266" y="75" width="115" height="80" rx="4" fill="#e8e8e8" stroke="#ccc"/>
        <polygon points="306,100 306,130 331,115" fill="#999"/>

        <circle cx="186" cy="175" r="4" fill="#ccc"/>
        <circle cx="200" cy="175" r="4" fill="#555"/>
        <circle cx="214" cy="175" r="4" fill="#ccc"/>
        <text x="35" y="120" font-size="18" fill="#bbb">‹</text>
        <text x="370" y="120" font-size="18" fill="#bbb">›</text>
        <text x="200" y="210" text-anchor="middle" font-size="10" fill="#aaa">Swiper.js powered</text>
        
</svg>