<svg xmlns="http://www.w3.org/2000/svg" viewBox="0 0 400 270" width="400" height="270">
  <defs>
    <style>text { font-family: -apple-system, BlinkMacSystemFont, "Segoe UI", Roboto, Helvetica, Arial, sans-serif; }</style>
  </defs>
  <rect width="400" height="270" rx="12" fill="#fff" stroke="#e0e0e0" stroke-width="1"/>
  <text x="200" y="30" text-anchor="middle" font-size="11" fill="#aaa" letter-spacing="1" text-transform="uppercase">Real Results</text>
  <line x1="160" y1="38" x2="240" y2="38" stroke="#eee" stroke-width="1"/>
  
        <text x="200" y="58" text-anchor="middle" font-size="14" fill="#333" font-weight="600">Real Results</text>
        <rect x="30" y="70" width="105" height="150" rx="8" fill="#fdf8f0" stroke="#e8ddd0"/>
        <circle cx="82" cy="105" r="22" fill="#e8ddd0"/>
        <text x="82" y="110" text-anchor="middle" font-size="16">👩</text>
        <rect x="50" y="135" width="65" height="6" rx="2" fill="#ddd"/>
        <text x="82" y="155" text-anchor="middle" font-size="9" fill="#999">★★★★★</text>
        <rect x="45" y="165" width="75" height="6" rx="2" fill="#eee"/>
        <rect x="50" y="177" width="60" height="6" rx="2" fill="#eee"/>
        <rect x="45" y="189" width="70" height="6" rx="2" fill="#eee"/>

        <rect x="148" y="70" width="105" height="150" rx="8" fill="#f0f8fd" stroke="#d0dde8"/>
        <circle cx="200" cy="105" r="22" fill="#d0dde8"/>
        <text x="200" y="110" text-anchor="middle" font-size="16">👨</text>
        <rect x="168" y="135" width="65" height="6" rx="2" fill="#ddd"/>
        <text x="200" y="155" text-anchor="middle" font-size="9" fill="#999">★★★★☆</text>
        <rect x="163" y="165" width="75" height="6" rx="2" fill="#eee"/>
        <rect x="168" y="177" width="60" height="6" rx="2" fill="#eee"/>

        <rect x="266" y="70" width="105" height="150" rx="8" fill="#f0fdf0" stroke="#d0e8d0"/>
        <circle cx="318" cy="105" r="22" fill="#d0e8d0"/>
        <text x="318" y="110" text-anchor="middle" font-size="16">👩</text>
        <rect x="286" y="135" width="65" height="6" rx="2" fill="#ddd"/>
        <text x="318" y="155" text-anchor="middle" font-size="9" fill="#999">★★★★★</text>
        <rect x="281" y="165" width="75" height="6" rx="2" fill="#eee"/>
        <rect x="286" y="177" width="60" height="6" rx="2" fill="#eee"/>
        
</svg>