<svg xmlns="http://www.w3.org/2000/svg" viewBox="0 0 400 270" width="400" height="270">
  <defs>
    <style>text { font-family: -apple-system, BlinkMacSystemFont, "Segoe UI", Roboto, Helvetica, Arial, sans-serif; }</style>
  </defs>
  <rect width="400" height="270" rx="12" fill="#fff" stroke="#e0e0e0" stroke-width="1"/>
  <text x="200" y="30" text-anchor="middle" font-size="11" fill="#aaa" letter-spacing="1" text-transform="uppercase">Pricing Table</text>
  <line x1="160" y1="38" x2="240" y2="38" stroke="#eee" stroke-width="1"/>
  
        <rect x="25" y="55" width="105" height="175" rx="6" fill="#fafafa" stroke="#ddd"/>
        <text x="77" y="80" text-anchor="middle" font-size="12" fill="#666" font-weight="600">Basic</text>
        <text x="77" y="105" text-anchor="middle" font-size="22" fill="#333" font-weight="700">$9</text>
        <text x="77" y="118" text-anchor="middle" font-size="9" fill="#999">/month</text>
        <rect x="45" y="130" width="65" height="6" rx="2" fill="#eee"/>
        <rect x="45" y="142" width="55" height="6" rx="2" fill="#eee"/>
        <rect x="45" y="154" width="60" height="6" rx="2" fill="#eee"/>
        <rect x="45" y="195" width="65" height="24" rx="12" fill="#ddd"/>
        <text x="77" y="211" text-anchor="middle" font-size="10" fill="#666">Choose</text>

        <rect x="148" y="45" width="105" height="195" rx="6" fill="#3498db" stroke="#2980b9"/>
        <text x="200" y="70" text-anchor="middle" font-size="12" fill="#fff" font-weight="600">Pro ⭐</text>
        <text x="200" y="98" text-anchor="middle" font-size="22" fill="#fff" font-weight="700">$29</text>
        <text x="200" y="111" text-anchor="middle" font-size="9" fill="#ddeeff">/month</text>
        <rect x="168" y="125" width="65" height="6" rx="2" fill="rgba(255,255,255,0.3)"/>
        <rect x="168" y="137" width="55" height="6" rx="2" fill="rgba(255,255,255,0.3)"/>
        <rect x="168" y="149" width="60" height="6" rx="2" fill="rgba(255,255,255,0.3)"/>
        <rect x="168" y="161" width="50" height="6" rx="2" fill="rgba(255,255,255,0.3)"/>
        <rect x="168" y="200" width="65" height="24" rx="12" fill="#fff"/>
        <text x="200" y="216" text-anchor="middle" font-size="10" fill="#3498db" font-weight="600">Choose</text>

        <rect x="270" y="55" width="105" height="175" rx="6" fill="#fafafa" stroke="#ddd"/>
        <text x="322" y="80" text-anchor="middle" font-size="12" fill="#666" font-weight="600">Team</text>
        <text x="322" y="105" text-anchor="middle" font-size="22" fill="#333" font-weight="700">$79</text>
        <text x="322" y="118" text-anchor="middle" font-size="9" fill="#999">/month</text>
        <rect x="290" y="130" width="65" height="6" rx="2" fill="#eee"/>
        <rect x="290" y="142" width="55" height="6" rx="2" fill="#eee"/>
        <rect x="290" y="154" width="60" height="6" rx="2" fill="#eee"/>
        <rect x="290" y="195" width="65" height="24" rx="12" fill="#ddd"/>
        <text x="322" y="211" text-anchor="middle" font-size="10" fill="#666">Choose</text>
        
</svg>